<svg width="700" height="140" viewBox="0 0 700 140" fill="none" xmlns="http://www.w3.org/2000/svg">
<g clip-path="url(#clip0_71_3348)">
<rect x="89" width="523" height="140" fill="#D3D3D3"/>
<g clip-path="url(#clip1_71_3348)">
<path d="M699.5 10.6C699.8 10.4 700 10.1 700 9.7V1.1C700 0.5 699.5 0 698.9 0H560V140H698.9C699.5 140 700 139.5 700 138.9V129C700 128.6 699.8 128.3 699.5 128.1C696.1 125.9 694 122.1 694 118C694 113.9 696.1 110.1 699.5 107.9C699.8 107.7 700 107.4 700 107V97C700 96.6 699.8 96.3 699.5 96.1C696.1 93.9 694 90.1 694 86C694 81.9 696.1 78.1 699.5 75.9C699.8 75.7 700 75.4 700 75V64.3C700 63.9 699.8 63.6 699.5 63.4C696.2 61.3 694.2 57.6 694 53.6V53.3C694.1 49.3 696.2 45.7 699.5 43.5C699.8 43.3 700 43 700 42.6V31.6C700 31.2 699.8 30.9 699.5 30.7C696.1 28.5 694 24.7 694 20.6C694.1 16.6 696.2 12.8 699.5 10.6Z" fill="#D3D3D3"/>
</g>
<g clip-path="url(#clip2_71_3348)">
<path d="M0.499999 129.4C0.199996 129.6 -8.8297e-07 129.9 -8.48001e-07 130.3L-9.61651e-08 138.9C-4.37114e-08 139.5 0.5 140 1.10001 140L140 140L140 0L1.09999 1.2143e-05C0.499988 1.21955e-05 -1.21955e-05 0.500012 -1.2143e-05 1.10002L-1.12775e-05 11C-1.12426e-05 11.4 0.199986 11.7 0.499989 11.9C3.89998 14.1 5.99999 17.9 5.99999 22C5.99999 26.1 3.89998 29.9 0.499991 32.1C0.199988 32.3 -9.38921e-06 32.6 -9.35424e-06 33L-8.48001e-06 43C-8.44504e-06 43.4 0.199989 43.7 0.499992 43.9C3.89999 46.1 5.99999 49.9 5.99999 54C5.99999 58.1 3.89999 61.9 0.499993 64.1C0.19999 64.3 -6.59168e-06 64.6 -6.55671e-06 65L-5.62128e-06 75.7C-5.58632e-06 76.1 0.199991 76.4 0.499994 76.6C3.8 78.7 5.8 82.4 6 86.4L6 86.7C5.89999 90.7 3.8 94.3 0.499996 96.5C0.199993 96.7 -3.75918e-06 97 -3.72421e-06 97.4L-2.76256e-06 108.4C-2.72759e-06 108.8 0.199994 109.1 0.499997 109.3C3.89999 111.5 6 115.3 6 119.4C5.89999 123.4 3.8 127.2 0.499999 129.4Z" fill="#D3D3D3"/>
</g>
<path d="M251.426 63.75H241.472C241.29 62.4621 240.919 61.3182 240.358 60.3182C239.797 59.303 239.078 58.4394 238.199 57.7273C237.32 57.0151 236.305 56.4697 235.153 56.0909C234.017 55.7121 232.782 55.5227 231.449 55.5227C229.04 55.5227 226.941 56.1212 225.153 57.3182C223.366 58.5 221.979 60.2273 220.994 62.5C220.009 64.7576 219.517 67.5 219.517 70.7273C219.517 74.0455 220.009 76.8333 220.994 79.0909C221.994 81.3485 223.388 83.053 225.176 84.2045C226.964 85.3561 229.032 85.9318 231.381 85.9318C232.699 85.9318 233.919 85.7576 235.04 85.4091C236.176 85.0606 237.184 84.553 238.062 83.8864C238.941 83.2045 239.669 82.3788 240.244 81.4091C240.835 80.4394 241.244 79.3333 241.472 78.0909L251.426 78.1364C251.169 80.2727 250.525 82.3333 249.494 84.3182C248.479 86.2879 247.108 88.053 245.381 89.6136C243.669 91.1591 241.623 92.3864 239.244 93.2955C236.881 94.1894 234.206 94.6364 231.222 94.6364C227.07 94.6364 223.358 93.697 220.085 91.8182C216.828 89.9394 214.252 87.2197 212.358 83.6591C210.479 80.0985 209.54 75.7879 209.54 70.7273C209.54 65.6515 210.494 61.3333 212.403 57.7727C214.313 54.2121 216.903 51.5 220.176 49.6364C223.449 47.7576 227.131 46.8182 231.222 46.8182C233.919 46.8182 236.419 47.197 238.722 47.9545C241.04 48.7121 243.093 49.8182 244.881 51.2727C246.669 52.7121 248.123 54.4773 249.244 56.5682C250.381 58.6591 251.108 61.053 251.426 63.75ZM274.074 94.6818C270.544 94.6818 267.491 93.9318 264.915 92.4318C262.354 90.9167 260.377 88.8106 258.983 86.1136C257.589 83.4015 256.892 80.2576 256.892 76.6818C256.892 73.0758 257.589 69.9242 258.983 67.2273C260.377 64.5152 262.354 62.4091 264.915 60.9091C267.491 59.3939 270.544 58.6364 274.074 58.6364C277.604 58.6364 280.65 59.3939 283.21 60.9091C285.786 62.4091 287.771 64.5152 289.165 67.2273C290.559 69.9242 291.256 73.0758 291.256 76.6818C291.256 80.2576 290.559 83.4015 289.165 86.1136C287.771 88.8106 285.786 90.9167 283.21 92.4318C280.65 93.9318 277.604 94.6818 274.074 94.6818ZM274.119 87.1818C275.725 87.1818 277.066 86.7273 278.142 85.8182C279.218 84.8939 280.028 83.6364 280.574 82.0455C281.134 80.4545 281.415 78.6439 281.415 76.6136C281.415 74.5833 281.134 72.7727 280.574 71.1818C280.028 69.5909 279.218 68.3333 278.142 67.4091C277.066 66.4848 275.725 66.0227 274.119 66.0227C272.498 66.0227 271.134 66.4848 270.028 67.4091C268.938 68.3333 268.112 69.5909 267.551 71.1818C267.006 72.7727 266.733 74.5833 266.733 76.6136C266.733 78.6439 267.006 80.4545 267.551 82.0455C268.112 83.6364 268.938 84.8939 270.028 85.8182C271.134 86.7273 272.498 87.1818 274.119 87.1818ZM307.233 73.8182V94H297.551V59.0909H306.778V65.25H307.188C307.96 63.2197 309.256 61.6136 311.074 60.4318C312.892 59.2348 315.097 58.6364 317.688 58.6364C320.112 58.6364 322.225 59.1667 324.028 60.2273C325.831 61.2879 327.233 62.803 328.233 64.7727C329.233 66.7273 329.733 69.0606 329.733 71.7727V94H320.051V73.5C320.066 71.3636 319.521 69.697 318.415 68.5C317.309 67.2879 315.786 66.6818 313.847 66.6818C312.544 66.6818 311.392 66.9621 310.392 67.5227C309.407 68.0833 308.634 68.9015 308.074 69.9773C307.528 71.0379 307.248 72.3182 307.233 73.8182ZM355.932 59.0909V66.3636H334.909V59.0909H355.932ZM339.682 50.7273H349.364V83.2727C349.364 84.1667 349.5 84.8636 349.773 85.3636C350.045 85.8485 350.424 86.1894 350.909 86.3864C351.409 86.5833 351.985 86.6818 352.636 86.6818C353.091 86.6818 353.545 86.6439 354 86.5682C354.455 86.4773 354.803 86.4091 355.045 86.3636L356.568 93.5682C356.083 93.7197 355.402 93.8939 354.523 94.0909C353.644 94.303 352.576 94.4318 351.318 94.4773C348.985 94.5682 346.939 94.2576 345.182 93.5455C343.439 92.8333 342.083 91.7273 341.114 90.2273C340.144 88.7273 339.667 86.8333 339.682 84.5455V50.7273ZM362.239 94V59.0909H371.92V94H362.239ZM367.102 54.5909C365.663 54.5909 364.428 54.1136 363.398 53.1591C362.383 52.1894 361.875 51.0303 361.875 49.6818C361.875 48.3485 362.383 47.2045 363.398 46.25C364.428 45.2803 365.663 44.7955 367.102 44.7955C368.542 44.7955 369.769 45.2803 370.784 46.25C371.814 47.2045 372.33 48.3485 372.33 49.6818C372.33 51.0303 371.814 52.1894 370.784 53.1591C369.769 54.1136 368.542 54.5909 367.102 54.5909ZM389.358 73.8182V94H379.676V59.0909H388.903V65.25H389.312C390.085 63.2197 391.381 61.6136 393.199 60.4318C395.017 59.2348 397.222 58.6364 399.812 58.6364C402.237 58.6364 404.35 59.1667 406.153 60.2273C407.956 61.2879 409.358 62.803 410.358 64.7727C411.358 66.7273 411.858 69.0606 411.858 71.7727V94H402.176V73.5C402.191 71.3636 401.646 69.697 400.54 68.5C399.434 67.2879 397.911 66.6818 395.972 66.6818C394.669 66.6818 393.517 66.9621 392.517 67.5227C391.532 68.0833 390.759 68.9015 390.199 69.9773C389.653 71.0379 389.373 72.3182 389.358 73.8182ZM441.875 79.1364V59.0909H451.557V94H442.261V87.6591H441.898C441.11 89.7045 439.799 91.3485 437.966 92.5909C436.148 93.8333 433.928 94.4545 431.307 94.4545C428.973 94.4545 426.92 93.9242 425.148 92.8636C423.375 91.803 421.989 90.2955 420.989 88.3409C420.004 86.3864 419.504 84.0455 419.489 81.3182V59.0909H429.17V79.5909C429.186 81.6515 429.739 83.2803 430.83 84.4773C431.92 85.6742 433.383 86.2727 435.216 86.2727C436.383 86.2727 437.473 86.0076 438.489 85.4773C439.504 84.9318 440.322 84.1288 440.943 83.0682C441.58 82.0076 441.89 80.697 441.875 79.1364ZM475.21 94.6818C471.619 94.6818 468.528 93.9545 465.938 92.5C463.362 91.0303 461.377 88.9545 459.983 86.2727C458.589 83.5758 457.892 80.3864 457.892 76.7045C457.892 73.1136 458.589 69.9621 459.983 67.25C461.377 64.5379 463.339 62.4242 465.869 60.9091C468.415 59.3939 471.4 58.6364 474.824 58.6364C477.127 58.6364 479.271 59.0076 481.256 59.75C483.256 60.4773 484.998 61.5758 486.483 63.0455C487.983 64.5152 489.15 66.3636 489.983 68.5909C490.816 70.803 491.233 73.3939 491.233 76.3636V79.0227H461.756V73.0227H482.119C482.119 71.6288 481.816 70.3939 481.21 69.3182C480.604 68.2424 479.763 67.4015 478.688 66.7955C477.627 66.1742 476.392 65.8636 474.983 65.8636C473.513 65.8636 472.21 66.2045 471.074 66.8864C469.953 67.553 469.074 68.4545 468.438 69.5909C467.801 70.7121 467.475 71.9621 467.46 73.3409V79.0455C467.46 80.7727 467.778 82.2652 468.415 83.5227C469.066 84.7803 469.983 85.75 471.165 86.4318C472.347 87.1136 473.748 87.4545 475.369 87.4545C476.445 87.4545 477.43 87.303 478.324 87C479.218 86.697 479.983 86.2424 480.619 85.6364C481.256 85.0303 481.741 84.2879 482.074 83.4091L491.028 84C490.574 86.1515 489.642 88.0303 488.233 89.6364C486.839 91.2273 485.036 92.4697 482.824 93.3636C480.627 94.2424 478.089 94.6818 475.21 94.6818Z" fill="#323232"/>
</g>
<defs>
<clipPath id="clip0_71_3348">
<rect width="700" height="140" fill="white"/>
</clipPath>
<clipPath id="clip1_71_3348">
<rect width="140" height="140" fill="white" transform="translate(560)"/>
</clipPath>
<clipPath id="clip2_71_3348">
<rect width="140" height="140" fill="white" transform="translate(140 140) rotate(180)"/>
</clipPath>
</defs>
</svg>
