<svg width="700" height="140" viewBox="0 0 700 140" fill="none" xmlns="http://www.w3.org/2000/svg">
<g clip-path="url(#clip0_346_2454)">
<rect x="89" width="523" height="140" fill="#D3D3D3"/>
<g clip-path="url(#clip1_346_2454)">
<path d="M699.5 10.6C699.8 10.4 700 10.1 700 9.7V1.1C700 0.5 699.5 0 698.9 0H560V140H698.9C699.5 140 700 139.5 700 138.9V129C700 128.6 699.8 128.3 699.5 128.1C696.1 125.9 694 122.1 694 118C694 113.9 696.1 110.1 699.5 107.9C699.8 107.7 700 107.4 700 107V97C700 96.6 699.8 96.3 699.5 96.1C696.1 93.9 694 90.1 694 86C694 81.9 696.1 78.1 699.5 75.9C699.8 75.7 700 75.4 700 75V64.3C700 63.9 699.8 63.6 699.5 63.4C696.2 61.3 694.2 57.6 694 53.6V53.3C694.1 49.3 696.2 45.7 699.5 43.5C699.8 43.3 700 43 700 42.6V31.6C700 31.2 699.8 30.9 699.5 30.7C696.1 28.5 694 24.7 694 20.6C694.1 16.6 696.2 12.8 699.5 10.6Z" fill="#D3D3D3"/>
</g>
<g clip-path="url(#clip2_346_2454)">
<path d="M0.499999 129.4C0.199996 129.6 -8.8297e-07 129.9 -8.48001e-07 130.3L-9.61651e-08 138.9C-4.37114e-08 139.5 0.5 140 1.10001 140L140 140L140 0L1.09999 1.2143e-05C0.499988 1.21955e-05 -1.21955e-05 0.500012 -1.2143e-05 1.10002L-1.12775e-05 11C-1.12426e-05 11.4 0.199986 11.7 0.499989 11.9C3.89998 14.1 5.99999 17.9 5.99999 22C5.99999 26.1 3.89998 29.9 0.499991 32.1C0.199988 32.3 -9.38921e-06 32.6 -9.35424e-06 33L-8.48001e-06 43C-8.44504e-06 43.4 0.199989 43.7 0.499992 43.9C3.89999 46.1 5.99999 49.9 5.99999 54C5.99999 58.1 3.89999 61.9 0.499993 64.1C0.19999 64.3 -6.59168e-06 64.6 -6.55671e-06 65L-5.62128e-06 75.7C-5.58632e-06 76.1 0.199991 76.4 0.499994 76.6C3.8 78.7 5.8 82.4 6 86.4L6 86.7C5.89999 90.7 3.8 94.3 0.499996 96.5C0.199993 96.7 -3.75918e-06 97 -3.72421e-06 97.4L-2.76256e-06 108.4C-2.72759e-06 108.8 0.199994 109.1 0.499997 109.3C3.89999 111.5 6 115.3 6 119.4C5.89999 123.4 3.8 127.2 0.499999 129.4Z" fill="#D3D3D3"/>
</g>
<path d="M192.014 94H175.514V47.4545H192.151C196.832 47.4545 200.863 48.3864 204.241 50.25C207.62 52.0985 210.219 54.7576 212.037 58.2273C213.87 61.697 214.787 65.8485 214.787 70.6818C214.787 75.5303 213.87 79.697 212.037 83.1818C210.219 86.6667 207.605 89.3409 204.196 91.2045C200.802 93.0682 196.741 94 192.014 94ZM185.355 85.5682H191.605C194.514 85.5682 196.961 85.053 198.946 84.0227C200.946 82.9773 202.446 81.3636 203.446 79.1818C204.461 76.9848 204.969 74.1515 204.969 70.6818C204.969 67.2424 204.461 64.4318 203.446 62.25C202.446 60.0682 200.954 58.4621 198.969 57.4318C196.984 56.4015 194.537 55.8864 191.628 55.8864H185.355V85.5682ZM221.895 94V59.0909H231.577V94H221.895ZM226.759 54.5909C225.319 54.5909 224.084 54.1136 223.054 53.1591C222.039 52.1894 221.531 51.0303 221.531 49.6818C221.531 48.3485 222.039 47.2045 223.054 46.25C224.084 45.2803 225.319 44.7955 226.759 44.7955C228.198 44.7955 229.425 45.2803 230.44 46.25C231.471 47.2045 231.986 48.3485 231.986 49.6818C231.986 51.0303 231.471 52.1894 230.44 53.1591C229.425 54.1136 228.198 54.5909 226.759 54.5909ZM268.378 69.0455L259.514 69.5909C259.363 68.8333 259.037 68.1515 258.537 67.5455C258.037 66.9242 257.378 66.4318 256.56 66.0682C255.757 65.6894 254.795 65.5 253.673 65.5C252.173 65.5 250.908 65.8182 249.878 66.4545C248.848 67.0758 248.332 67.9091 248.332 68.9545C248.332 69.7879 248.666 70.4924 249.332 71.0682C249.999 71.6439 251.143 72.1061 252.764 72.4545L259.082 73.7273C262.476 74.4242 265.007 75.5455 266.673 77.0909C268.34 78.6364 269.173 80.6667 269.173 83.1818C269.173 85.4697 268.499 87.4773 267.151 89.2045C265.817 90.9318 263.984 92.2803 261.651 93.25C259.332 94.2045 256.658 94.6818 253.628 94.6818C249.007 94.6818 245.325 93.7197 242.582 91.7955C239.855 89.8561 238.257 87.2197 237.787 83.8864L247.31 83.3864C247.598 84.7955 248.295 85.8712 249.401 86.6136C250.507 87.3409 251.923 87.7045 253.651 87.7045C255.348 87.7045 256.711 87.3788 257.741 86.7273C258.787 86.0606 259.317 85.2045 259.332 84.1591C259.317 83.2803 258.946 82.5606 258.219 82C257.491 81.4242 256.37 80.9848 254.855 80.6818L248.81 79.4773C245.401 78.7955 242.863 77.6136 241.196 75.9318C239.545 74.25 238.719 72.1061 238.719 69.5C238.719 67.2576 239.325 65.3258 240.537 63.7045C241.764 62.0833 243.484 60.8333 245.696 59.9545C247.923 59.0758 250.529 58.6364 253.514 58.6364C257.923 58.6364 261.393 59.5682 263.923 61.4318C266.469 63.2955 267.954 65.8333 268.378 69.0455ZM291.043 94.6818C287.467 94.6818 284.391 93.9242 281.815 92.4091C279.255 90.8788 277.285 88.7576 275.906 86.0455C274.543 83.3333 273.861 80.2121 273.861 76.6818C273.861 73.1061 274.55 69.9697 275.929 67.2727C277.323 64.5606 279.3 62.447 281.861 60.9318C284.421 59.4015 287.467 58.6364 290.997 58.6364C294.043 58.6364 296.709 59.1894 298.997 60.2955C301.285 61.4015 303.096 62.9545 304.429 64.9545C305.762 66.9545 306.497 69.303 306.634 72H297.497C297.24 70.2576 296.558 68.8561 295.452 67.7955C294.361 66.7197 292.929 66.1818 291.156 66.1818C289.656 66.1818 288.346 66.5909 287.224 67.4091C286.118 68.2121 285.255 69.3864 284.634 70.9318C284.012 72.4773 283.702 74.3485 283.702 76.5455C283.702 78.7727 284.005 80.6667 284.611 82.2273C285.232 83.7879 286.103 84.9773 287.224 85.7955C288.346 86.6136 289.656 87.0227 291.156 87.0227C292.262 87.0227 293.255 86.7955 294.134 86.3409C295.027 85.8864 295.762 85.2273 296.338 84.3636C296.929 83.4848 297.315 82.4318 297.497 81.2045H306.634C306.482 83.8712 305.755 86.2197 304.452 88.25C303.164 90.2652 301.384 91.8409 299.111 92.9773C296.838 94.1136 294.149 94.6818 291.043 94.6818ZM328.605 94.6818C325.075 94.6818 322.022 93.9318 319.446 92.4318C316.885 90.9167 314.908 88.8106 313.514 86.1136C312.12 83.4015 311.423 80.2576 311.423 76.6818C311.423 73.0758 312.12 69.9242 313.514 67.2273C314.908 64.5152 316.885 62.4091 319.446 60.9091C322.022 59.3939 325.075 58.6364 328.605 58.6364C332.135 58.6364 335.181 59.3939 337.741 60.9091C340.317 62.4091 342.302 64.5152 343.696 67.2273C345.09 69.9242 345.787 73.0758 345.787 76.6818C345.787 80.2576 345.09 83.4015 343.696 86.1136C342.302 88.8106 340.317 90.9167 337.741 92.4318C335.181 93.9318 332.135 94.6818 328.605 94.6818ZM328.651 87.1818C330.257 87.1818 331.598 86.7273 332.673 85.8182C333.749 84.8939 334.56 83.6364 335.105 82.0455C335.666 80.4545 335.946 78.6439 335.946 76.6136C335.946 74.5833 335.666 72.7727 335.105 71.1818C334.56 69.5909 333.749 68.3333 332.673 67.4091C331.598 66.4848 330.257 66.0227 328.651 66.0227C327.029 66.0227 325.666 66.4848 324.56 67.4091C323.469 68.3333 322.643 69.5909 322.082 71.1818C321.537 72.7727 321.264 74.5833 321.264 76.6136C321.264 78.6439 321.537 80.4545 322.082 82.0455C322.643 83.6364 323.469 84.8939 324.56 85.8182C325.666 86.7273 327.029 87.1818 328.651 87.1818ZM361.764 73.8182V94H352.082V59.0909H361.31V65.25H361.719C362.491 63.2197 363.787 61.6136 365.605 60.4318C367.423 59.2348 369.628 58.6364 372.219 58.6364C374.643 58.6364 376.757 59.1667 378.56 60.2273C380.363 61.2879 381.764 62.803 382.764 64.7727C383.764 66.7273 384.264 69.0606 384.264 71.7727V94H374.582V73.5C374.598 71.3636 374.052 69.697 372.946 68.5C371.84 67.2879 370.317 66.6818 368.378 66.6818C367.075 66.6818 365.923 66.9621 364.923 67.5227C363.938 68.0833 363.166 68.9015 362.605 69.9773C362.06 71.0379 361.779 72.3182 361.764 73.8182ZM401.577 73.8182V94H391.895V59.0909H401.122V65.25H401.531C402.304 63.2197 403.599 61.6136 405.418 60.4318C407.236 59.2348 409.44 58.6364 412.031 58.6364C414.455 58.6364 416.569 59.1667 418.372 60.2273C420.175 61.2879 421.577 62.803 422.577 64.7727C423.577 66.7273 424.077 69.0606 424.077 71.7727V94H414.395V73.5C414.41 71.3636 413.865 69.697 412.759 68.5C411.652 67.2879 410.13 66.6818 408.19 66.6818C406.887 66.6818 405.736 66.9621 404.736 67.5227C403.751 68.0833 402.978 68.9015 402.418 69.9773C401.872 71.0379 401.592 72.3182 401.577 73.8182ZM447.616 94.6818C444.026 94.6818 440.935 93.9545 438.344 92.5C435.768 91.0303 433.783 88.9545 432.389 86.2727C430.995 83.5758 430.298 80.3864 430.298 76.7045C430.298 73.1136 430.995 69.9621 432.389 67.25C433.783 64.5379 435.745 62.4242 438.276 60.9091C440.821 59.3939 443.806 58.6364 447.23 58.6364C449.533 58.6364 451.677 59.0076 453.662 59.75C455.662 60.4773 457.404 61.5758 458.889 63.0455C460.389 64.5152 461.556 66.3636 462.389 68.5909C463.223 70.803 463.639 73.3939 463.639 76.3636V79.0227H434.162V73.0227H454.526C454.526 71.6288 454.223 70.3939 453.616 69.3182C453.01 68.2424 452.17 67.4015 451.094 66.7955C450.033 66.1742 448.798 65.8636 447.389 65.8636C445.92 65.8636 444.616 66.2045 443.48 66.8864C442.359 67.553 441.48 68.4545 440.844 69.5909C440.207 70.7121 439.882 71.9621 439.866 73.3409V79.0455C439.866 80.7727 440.185 82.2652 440.821 83.5227C441.473 84.7803 442.389 85.75 443.571 86.4318C444.753 87.1136 446.154 87.4545 447.776 87.4545C448.851 87.4545 449.836 87.303 450.73 87C451.624 86.697 452.389 86.2424 453.026 85.6364C453.662 85.0303 454.147 84.2879 454.48 83.4091L463.435 84C462.98 86.1515 462.048 88.0303 460.639 89.6364C459.245 91.2273 457.442 92.4697 455.23 93.3636C453.033 94.2424 450.495 94.6818 447.616 94.6818ZM485.73 94.6818C482.154 94.6818 479.079 93.9242 476.503 92.4091C473.942 90.8788 471.973 88.7576 470.594 86.0455C469.23 83.3333 468.548 80.2121 468.548 76.6818C468.548 73.1061 469.238 69.9697 470.616 67.2727C472.01 64.5606 473.988 62.447 476.548 60.9318C479.109 59.4015 482.154 58.6364 485.685 58.6364C488.73 58.6364 491.397 59.1894 493.685 60.2955C495.973 61.4015 497.783 62.9545 499.116 64.9545C500.45 66.9545 501.185 69.303 501.321 72H492.185C491.927 70.2576 491.245 68.8561 490.139 67.7955C489.048 66.7197 487.616 66.1818 485.844 66.1818C484.344 66.1818 483.033 66.5909 481.912 67.4091C480.806 68.2121 479.942 69.3864 479.321 70.9318C478.7 72.4773 478.389 74.3485 478.389 76.5455C478.389 78.7727 478.692 80.6667 479.298 82.2273C479.92 83.7879 480.791 84.9773 481.912 85.7955C483.033 86.6136 484.344 87.0227 485.844 87.0227C486.95 87.0227 487.942 86.7955 488.821 86.3409C489.715 85.8864 490.45 85.2273 491.026 84.3636C491.616 83.4848 492.003 82.4318 492.185 81.2045H501.321C501.17 83.8712 500.442 86.2197 499.139 88.25C497.851 90.2652 496.071 91.8409 493.798 92.9773C491.526 94.1136 488.836 94.6818 485.73 94.6818ZM526.088 59.0909V66.3636H505.065V59.0909H526.088ZM509.838 50.7273H519.52V83.2727C519.52 84.1667 519.656 84.8636 519.929 85.3636C520.202 85.8485 520.58 86.1894 521.065 86.3864C521.565 86.5833 522.141 86.6818 522.793 86.6818C523.247 86.6818 523.702 86.6439 524.156 86.5682C524.611 86.4773 524.959 86.4091 525.202 86.3636L526.724 93.5682C526.24 93.7197 525.558 93.8939 524.679 94.0909C523.8 94.303 522.732 94.4318 521.474 94.4773C519.141 94.5682 517.096 94.2576 515.338 93.5455C513.596 92.8333 512.24 91.7273 511.27 90.2273C510.3 88.7273 509.823 86.8333 509.838 84.5455V50.7273Z" fill="#323232"/>
</g>
<defs>
<clipPath id="clip0_346_2454">
<rect width="700" height="140" fill="white"/>
</clipPath>
<clipPath id="clip1_346_2454">
<rect width="140" height="140" fill="white" transform="translate(560)"/>
</clipPath>
<clipPath id="clip2_346_2454">
<rect width="140" height="140" fill="white" transform="translate(140 140) rotate(180)"/>
</clipPath>
</defs>
</svg>
