<svg width="700" height="140" viewBox="0 0 700 140" fill="none" xmlns="http://www.w3.org/2000/svg">
<g clip-path="url(#clip0_346_2426)">
<rect x="89" width="523" height="140" fill="#D3D3D3"/>
<g clip-path="url(#clip1_346_2426)">
<path d="M699.5 10.6C699.8 10.4 700 10.1 700 9.7V1.1C700 0.5 699.5 0 698.9 0H560V140H698.9C699.5 140 700 139.5 700 138.9V129C700 128.6 699.8 128.3 699.5 128.1C696.1 125.9 694 122.1 694 118C694 113.9 696.1 110.1 699.5 107.9C699.8 107.7 700 107.4 700 107V97C700 96.6 699.8 96.3 699.5 96.1C696.1 93.9 694 90.1 694 86C694 81.9 696.1 78.1 699.5 75.9C699.8 75.7 700 75.4 700 75V64.3C700 63.9 699.8 63.6 699.5 63.4C696.2 61.3 694.2 57.6 694 53.6V53.3C694.1 49.3 696.2 45.7 699.5 43.5C699.8 43.3 700 43 700 42.6V31.6C700 31.2 699.8 30.9 699.5 30.7C696.1 28.5 694 24.7 694 20.6C694.1 16.6 696.2 12.8 699.5 10.6Z" fill="#D3D3D3"/>
</g>
<g clip-path="url(#clip2_346_2426)">
<path d="M0.499999 129.4C0.199996 129.6 -8.8297e-07 129.9 -8.48001e-07 130.3L-9.61651e-08 138.9C-4.37114e-08 139.5 0.5 140 1.10001 140L140 140L140 0L1.09999 1.2143e-05C0.499988 1.21955e-05 -1.21955e-05 0.500012 -1.2143e-05 1.10002L-1.12775e-05 11C-1.12426e-05 11.4 0.199986 11.7 0.499989 11.9C3.89998 14.1 5.99999 17.9 5.99999 22C5.99999 26.1 3.89998 29.9 0.499991 32.1C0.199988 32.3 -9.38921e-06 32.6 -9.35424e-06 33L-8.48001e-06 43C-8.44504e-06 43.4 0.199989 43.7 0.499992 43.9C3.89999 46.1 5.99999 49.9 5.99999 54C5.99999 58.1 3.89999 61.9 0.499993 64.1C0.19999 64.3 -6.59168e-06 64.6 -6.55671e-06 65L-5.62128e-06 75.7C-5.58632e-06 76.1 0.199991 76.4 0.499994 76.6C3.8 78.7 5.8 82.4 6 86.4L6 86.7C5.89999 90.7 3.8 94.3 0.499996 96.5C0.199993 96.7 -3.75918e-06 97 -3.72421e-06 97.4L-2.76256e-06 108.4C-2.72759e-06 108.8 0.199994 109.1 0.499997 109.3C3.89999 111.5 6 115.3 6 119.4C5.89999 123.4 3.8 127.2 0.499999 129.4Z" fill="#D3D3D3"/>
</g>
<path d="M182.567 59.75C182.089 58.0909 181.419 56.625 180.555 55.3523C179.692 54.0568 178.635 52.9659 177.385 52.0795C176.158 51.1705 174.749 50.4773 173.158 50C171.589 49.5227 169.851 49.2841 167.942 49.2841C164.374 49.2841 161.237 50.1705 158.533 51.9432C155.851 53.7159 153.76 56.2955 152.26 59.6818C150.76 63.0455 150.01 67.1591 150.01 72.0227C150.01 76.8864 150.749 81.0227 152.226 84.4318C153.703 87.8409 155.794 90.4432 158.499 92.2386C161.203 94.0114 164.396 94.8977 168.078 94.8977C171.419 94.8977 174.271 94.3068 176.635 93.125C179.021 91.9205 180.839 90.2273 182.089 88.0455C183.362 85.8636 183.999 83.2841 183.999 80.3068L186.999 80.75H168.999V69.6364H198.214V78.4318C198.214 84.5682 196.919 89.8409 194.328 94.25C191.737 98.6364 188.169 102.023 183.624 104.409C179.078 106.773 173.874 107.955 168.01 107.955C161.464 107.955 155.714 106.511 150.76 103.625C145.805 100.716 141.942 96.5909 139.169 91.25C136.419 85.8864 135.044 79.5227 135.044 72.1591C135.044 66.5 135.862 61.4545 137.499 57.0227C139.158 52.5682 141.476 48.7955 144.453 45.7045C147.43 42.6136 150.896 40.2614 154.851 38.6477C158.805 37.0341 163.089 36.2273 167.703 36.2273C171.658 36.2273 175.339 36.8068 178.749 37.9659C182.158 39.1023 185.18 40.7159 187.817 42.8068C190.476 44.8977 192.646 47.3864 194.328 50.2727C196.01 53.1364 197.089 56.2955 197.567 59.75H182.567ZM232.893 108.023C227.507 108.023 222.871 106.932 218.984 104.75C215.121 102.545 212.143 99.4318 210.053 95.4091C207.962 91.3636 206.916 86.5795 206.916 81.0568C206.916 75.6705 207.962 70.9432 210.053 66.875C212.143 62.8068 215.087 59.6364 218.882 57.3636C222.7 55.0909 227.178 53.9545 232.314 53.9545C235.768 53.9545 238.984 54.5114 241.962 55.625C244.962 56.7159 247.575 58.3636 249.803 60.5682C252.053 62.7727 253.803 65.5455 255.053 68.8864C256.303 72.2045 256.928 76.0909 256.928 80.5455V84.5341H212.712V75.5341H243.257C243.257 73.4432 242.803 71.5909 241.893 69.9773C240.984 68.3636 239.723 67.1023 238.109 66.1932C236.518 65.2614 234.666 64.7955 232.553 64.7955C230.348 64.7955 228.393 65.3068 226.689 66.3295C225.007 67.3295 223.689 68.6818 222.734 70.3864C221.78 72.0682 221.291 73.9432 221.268 76.0114V84.5682C221.268 87.1591 221.746 89.3977 222.7 91.2841C223.678 93.1705 225.053 94.625 226.825 95.6477C228.598 96.6705 230.7 97.1818 233.132 97.1818C234.746 97.1818 236.223 96.9545 237.564 96.5C238.905 96.0455 240.053 95.3636 241.007 94.4545C241.962 93.5455 242.689 92.4318 243.189 91.1136L256.621 92C255.939 95.2273 254.541 98.0455 252.428 100.455C250.337 102.841 247.632 104.705 244.314 106.045C241.018 107.364 237.212 108.023 232.893 108.023ZM294.257 54.6364V65.5455H262.723V54.6364H294.257ZM269.882 42.0909H284.405V90.9091C284.405 92.25 284.609 93.2955 285.018 94.0455C285.428 94.7727 285.996 95.2841 286.723 95.5795C287.473 95.875 288.337 96.0227 289.314 96.0227C289.996 96.0227 290.678 95.9659 291.359 95.8523C292.041 95.7159 292.564 95.6136 292.928 95.5455L295.212 106.352C294.484 106.58 293.462 106.841 292.143 107.136C290.825 107.455 289.223 107.648 287.337 107.716C283.837 107.852 280.768 107.386 278.132 106.318C275.518 105.25 273.484 103.591 272.03 101.341C270.575 99.0909 269.859 96.25 269.882 92.8182V42.0909ZM350.286 59.75C349.808 58.0909 349.138 56.625 348.274 55.3523C347.411 54.0568 346.354 52.9659 345.104 52.0795C343.876 51.1705 342.467 50.4773 340.876 50C339.308 49.5227 337.57 49.2841 335.661 49.2841C332.092 49.2841 328.956 50.1705 326.251 51.9432C323.57 53.7159 321.479 56.2955 319.979 59.6818C318.479 63.0455 317.729 67.1591 317.729 72.0227C317.729 76.8864 318.467 81.0227 319.945 84.4318C321.422 87.8409 323.513 90.4432 326.217 92.2386C328.922 94.0114 332.115 94.8977 335.797 94.8977C339.138 94.8977 341.99 94.3068 344.354 93.125C346.74 91.9205 348.558 90.2273 349.808 88.0455C351.081 85.8636 351.717 83.2841 351.717 80.3068L354.717 80.75H336.717V69.6364H365.933V78.4318C365.933 84.5682 364.638 89.8409 362.047 94.25C359.456 98.6364 355.888 102.023 351.342 104.409C346.797 106.773 341.592 107.955 335.729 107.955C329.183 107.955 323.433 106.511 318.479 103.625C313.524 100.716 309.661 96.5909 306.888 91.25C304.138 85.8864 302.763 79.5227 302.763 72.1591C302.763 66.5 303.581 61.4545 305.217 57.0227C306.876 52.5682 309.195 48.7955 312.172 45.7045C315.149 42.6136 318.615 40.2614 322.57 38.6477C326.524 37.0341 330.808 36.2273 335.422 36.2273C339.376 36.2273 343.058 36.8068 346.467 37.9659C349.876 39.1023 352.899 40.7159 355.536 42.8068C358.195 44.8977 360.365 47.3864 362.047 50.2727C363.729 53.1364 364.808 56.2955 365.286 59.75H350.286ZM400.612 108.023C395.226 108.023 390.589 106.932 386.703 104.75C382.839 102.545 379.862 99.4318 377.771 95.4091C375.68 91.3636 374.635 86.5795 374.635 81.0568C374.635 75.6705 375.68 70.9432 377.771 66.875C379.862 62.8068 382.805 59.6364 386.601 57.3636C390.419 55.0909 394.896 53.9545 400.033 53.9545C403.487 53.9545 406.703 54.5114 409.68 55.625C412.68 56.7159 415.294 58.3636 417.521 60.5682C419.771 62.7727 421.521 65.5455 422.771 68.8864C424.021 72.2045 424.646 76.0909 424.646 80.5455V84.5341H380.43V75.5341H410.976C410.976 73.4432 410.521 71.5909 409.612 69.9773C408.703 68.3636 407.442 67.1023 405.828 66.1932C404.237 65.2614 402.385 64.7955 400.271 64.7955C398.067 64.7955 396.112 65.3068 394.408 66.3295C392.726 67.3295 391.408 68.6818 390.453 70.3864C389.499 72.0682 389.01 73.9432 388.987 76.0114V84.5682C388.987 87.1591 389.464 89.3977 390.419 91.2841C391.396 93.1705 392.771 94.625 394.544 95.6477C396.317 96.6705 398.419 97.1818 400.851 97.1818C402.464 97.1818 403.942 96.9545 405.283 96.5C406.624 96.0455 407.771 95.3636 408.726 94.4545C409.68 93.5455 410.408 92.4318 410.908 91.1136L424.339 92C423.658 95.2273 422.26 98.0455 420.146 100.455C418.055 102.841 415.351 104.705 412.033 106.045C408.737 107.364 404.93 108.023 400.612 108.023ZM434.124 107V54.6364H447.964V63.875H448.578C449.669 60.8068 451.487 58.3864 454.033 56.6136C456.578 54.8409 459.624 53.9545 463.169 53.9545C466.76 53.9545 469.817 54.8523 472.339 56.6477C474.862 58.4205 476.544 60.8295 477.385 63.875H477.93C478.999 60.875 480.93 58.4773 483.726 56.6818C486.544 54.8636 489.874 53.9545 493.714 53.9545C498.601 53.9545 502.567 55.5114 505.612 58.625C508.68 61.7159 510.214 66.1023 510.214 71.7841V107H495.726V74.6477C495.726 71.7386 494.953 69.5568 493.408 68.1023C491.862 66.6477 489.93 65.9205 487.612 65.9205C484.976 65.9205 482.919 66.7614 481.442 68.4432C479.964 70.1023 479.226 72.2955 479.226 75.0227V107H465.146V74.3409C465.146 71.7727 464.408 69.7273 462.93 68.2045C461.476 66.6818 459.555 65.9205 457.169 65.9205C455.555 65.9205 454.101 66.3295 452.805 67.1477C451.533 67.9432 450.521 69.0682 449.771 70.5227C449.021 71.9545 448.646 73.6364 448.646 75.5682V107H434.124ZM565.254 69.5682L551.959 70.3864C551.732 69.25 551.243 68.2273 550.493 67.3182C549.743 66.3864 548.754 65.6477 547.527 65.1023C546.322 64.5341 544.879 64.25 543.197 64.25C540.947 64.25 539.05 64.7273 537.504 65.6818C535.959 66.6136 535.186 67.8636 535.186 69.4318C535.186 70.6818 535.686 71.7386 536.686 72.6023C537.686 73.4659 539.402 74.1591 541.834 74.6818L551.311 76.5909C556.402 77.6364 560.197 79.3182 562.697 81.6364C565.197 83.9545 566.447 87 566.447 90.7727C566.447 94.2045 565.436 97.2159 563.413 99.8068C561.413 102.398 558.663 104.42 555.163 105.875C551.686 107.307 547.675 108.023 543.129 108.023C536.197 108.023 530.675 106.58 526.561 103.693C522.47 100.784 520.072 96.8295 519.368 91.8295L533.652 91.0795C534.084 93.1932 535.129 94.8068 536.788 95.9205C538.447 97.0114 540.572 97.5568 543.163 97.5568C545.709 97.5568 547.754 97.0682 549.3 96.0909C550.868 95.0909 551.663 93.8068 551.686 92.2386C551.663 90.9205 551.107 89.8409 550.016 89C548.925 88.1364 547.243 87.4773 544.97 87.0227L535.902 85.2159C530.788 84.1932 526.982 82.4205 524.482 79.8977C522.004 77.375 520.766 74.1591 520.766 70.25C520.766 66.8864 521.675 63.9886 523.493 61.5568C525.334 59.125 527.913 57.25 531.232 55.9318C534.572 54.6136 538.482 53.9545 542.959 53.9545C549.572 53.9545 554.777 55.3523 558.572 58.1477C562.391 60.9432 564.618 64.75 565.254 69.5682Z" fill="#323232"/>
</g>
<defs>
<clipPath id="clip0_346_2426">
<rect width="700" height="140" fill="white"/>
</clipPath>
<clipPath id="clip1_346_2426">
<rect width="140" height="140" fill="white" transform="translate(560)"/>
</clipPath>
<clipPath id="clip2_346_2426">
<rect width="140" height="140" fill="white" transform="translate(140 140) rotate(180)"/>
</clipPath>
</defs>
</svg>
