<svg width="180" height="168" viewBox="0 0 180 168" fill="none" xmlns="http://www.w3.org/2000/svg">
<path d="M87.7283 134.219C88.6124 134.495 89.5163 133.871 89.5163 132.945V117.117C89.5163 117.112 89.5149 117.108 89.5149 117.103C89.5149 117.098 89.5163 117.093 89.5163 117.088V111.787C89.5163 109.678 87.8067 107.968 85.6978 107.968H28.5229C27.7783 107.968 27.1748 108.572 27.1748 109.316V132.563C27.1748 133.307 27.7783 133.911 28.5229 133.911H35.7527C35.7627 133.911 35.772 133.908 35.782 133.908C35.792 133.908 35.8012 133.911 35.8112 133.911H85.6977C86.4046 133.911 87.0866 134.019 87.7283 134.219Z" fill="#D3D3D3"/>
<path d="M100.413 31.5661L98.9486 39.9827C98.79 40.8937 99.745 41.5911 100.565 41.1627L107.956 37.2999C108.174 37.1859 108.413 37.1291 108.652 37.1291C108.893 37.1291 109.135 37.1872 109.354 37.3034L116.727 41.202C117.544 41.6343 118.502 40.9416 118.348 40.0298L116.959 31.8067C116.876 31.3192 117.039 30.822 117.394 30.4777L123.38 24.671C124.044 24.0271 123.681 22.9016 122.766 22.7664L114.516 21.5472C114.027 21.4749 113.604 21.1664 113.387 20.7222L109.714 13.2348C109.307 12.4046 108.124 12.4018 107.713 13.23L103.913 20.8817C103.75 21.2105 103.435 21.438 103.072 21.49L94.6145 22.698C93.6991 22.8288 93.3308 23.9525 93.9915 24.5996L100.095 30.5776C100.357 30.8346 100.476 31.2043 100.413 31.5661Z" fill="white"/>
<path d="M141.083 36.1484L140.412 40.0025C140.253 40.9136 141.208 41.6109 142.028 41.1826L145.315 39.4647C145.533 39.3507 145.772 39.2939 146.011 39.2939C146.252 39.2939 146.494 39.352 146.713 39.4682L149.992 41.202C150.81 41.6343 151.768 40.9415 151.614 40.0298L150.962 36.1721C150.901 35.81 151.022 35.441 151.285 35.1852L154.093 32.4613C154.757 31.8175 154.394 30.692 153.479 30.5568L149.609 29.9848C149.246 29.9311 148.932 29.7021 148.771 29.3724L147.048 25.8599C146.64 25.0296 145.458 25.0267 145.047 25.855L143.307 29.3591C143.143 29.688 142.829 29.9155 142.465 29.9674L138.592 30.5207C137.677 30.6514 137.308 31.7751 137.969 32.4222L140.764 35.16C141.026 35.417 141.145 35.7867 141.083 36.1484Z" fill="white"/>
<path d="M66.3923 36.1484L65.7215 40.0025C65.563 40.9136 66.518 41.6109 67.3375 41.1826L70.6245 39.4647C70.8424 39.3507 71.0816 39.2939 71.3205 39.2939C71.562 39.2939 71.8033 39.352 72.0231 39.4682L75.3016 41.2019C76.1191 41.6342 77.0774 40.9415 76.9233 40.0297L76.2713 36.1721C76.2101 35.8101 76.331 35.4411 76.5945 35.1853L79.4027 32.4613C80.0664 31.8175 79.7038 30.692 78.7889 30.5568L74.9187 29.9848C74.5555 29.9311 74.2419 29.7021 74.0801 29.3724L72.3572 25.8599C71.95 25.0296 70.7674 25.0267 70.3562 25.855L68.6162 29.3591C68.4528 29.688 68.1381 29.9155 67.7747 29.9674L63.9016 30.5207C62.9862 30.6514 62.618 31.7751 63.2786 32.4222L66.0737 35.16C66.3361 35.417 66.4552 35.7867 66.3923 36.1484Z" fill="white"/>
<path d="M66.4632 62.704C65.8471 62.704 65.3475 63.2035 65.3475 63.8197V84.8246C65.3475 85.6463 65.2015 86.4344 64.9341 87.1645C64.6704 87.8843 65.2204 88.6437 65.987 88.6437H88.2662C88.8823 88.6437 89.3819 88.1442 89.3819 87.528V63.8197C89.3819 63.2035 88.8823 62.704 88.2662 62.704H66.4632ZM83.2802 68.3087C82.2186 68.6538 81.3902 69.1723 80.7539 69.7174C80.2182 70.1763 80.2305 71.0109 80.7878 71.4435C81.6259 72.094 82.2984 72.9533 82.7476 73.9818C83.8153 76.4261 83.4902 79.4108 81.8994 81.7711C80.145 84.3933 77.1741 85.8848 74.1276 85.8848C72.9148 85.885 71.6901 85.6486 70.5249 85.1532C70.215 85.0215 69.9856 84.7434 69.9034 84.4169C69.5381 82.9655 70.8069 82.0453 71.8911 82.4639C74.6195 83.519 77.7796 82.523 79.4042 80.0954C80.4129 78.5985 80.643 76.6726 79.993 75.1847C79.6407 74.3777 78.8836 73.3639 77.2802 73.1131C77.1842 73.0985 77.0885 73.077 76.9937 73.0427C76.9786 73.0372 76.9662 73.0283 76.9514 73.0225C76.9387 73.0174 76.9271 73.0102 76.9146 73.0049C76.8229 72.9655 76.737 72.919 76.6573 72.8646C76.6437 72.8551 76.6313 72.8444 76.6178 72.8346C76.5406 72.7777 76.4701 72.7153 76.4062 72.646C76.394 72.6329 76.3825 72.6199 76.3707 72.6063C76.3065 72.5317 76.2503 72.4522 76.2022 72.3672C76.1977 72.3592 76.1911 72.3532 76.1867 72.3452C74.9065 69.9911 72.7295 70.4634 71.853 70.7754C70.7602 71.1648 69.5151 70.2121 69.9179 68.7726C70.0132 68.432 70.2742 68.1627 70.6036 68.0338C72.7505 67.194 74.864 67.3761 76.5363 68.424C76.9977 68.7132 77.591 68.6327 77.9618 68.2339C78.8894 67.2364 80.2172 66.2055 82.066 65.5472C83.17 65.1538 84.4313 66.1311 83.9868 67.5965C83.8846 67.9337 83.6153 68.1998 83.2802 68.3087Z" fill="#D3D3D3"/>
<path d="M149.394 127.249C147.843 125.615 145.926 124.864 144.08 124.864C143.626 124.864 143.366 125.39 143.638 125.754C144.879 127.412 145.585 129.452 145.585 131.581C145.585 133.711 144.879 135.752 143.636 137.411C143.367 137.771 143.619 138.297 144.069 138.298C144.073 138.298 144.078 138.298 144.082 138.298C149.142 138.298 152.913 132.673 149.472 127.348C149.449 127.313 149.423 127.279 149.394 127.249Z" fill="#D3D3D3"/>
<path d="M111.804 73.1141C111.801 73.1137 111.798 73.1122 111.795 73.1118C111.705 73.0971 111.615 73.075 111.525 73.0428C111.515 73.0392 111.507 73.033 111.497 73.0292C111.46 73.015 111.426 72.9954 111.391 72.9784C111.327 72.9479 111.265 72.9164 111.207 72.8784C111.174 72.8568 111.145 72.8322 111.114 72.808C111.059 72.7652 111.007 72.7203 110.959 72.6708C110.932 72.6424 110.906 72.6132 110.881 72.5825C110.836 72.528 110.796 72.471 110.76 72.4111C110.747 72.3898 110.729 72.3724 110.717 72.3503C110.081 71.187 109.154 70.5692 107.964 70.5144C107.908 70.5119 107.853 70.5106 107.797 70.5106C106.227 70.5106 104.509 71.5137 103.474 73.0504C101.532 75.9359 102.3 79.8638 105.185 81.8061C108.071 83.7483 111.999 82.9811 113.941 80.0953C114.945 78.6036 115.174 76.6786 114.525 75.1912C114.172 74.3822 113.413 73.3651 111.804 73.1141Z" fill="#D3D3D3"/>
<path d="M128.614 119.721V143.441C128.614 144.057 129.114 144.556 129.73 144.556H160.731C161.347 144.556 161.846 144.057 161.846 143.441V119.721C161.846 119.105 161.347 118.606 160.731 118.606H129.73C129.114 118.605 128.614 119.105 128.614 119.721ZM144.082 141.304C142.316 141.304 140.588 140.826 139.095 139.925C138.985 139.859 138.882 139.775 138.805 139.672C138.189 138.842 138.476 137.827 139.22 137.397C141.292 136.199 142.579 133.97 142.579 131.581C142.579 129.16 141.257 126.904 139.137 125.718C139.022 125.654 138.912 125.576 138.831 125.472C138.183 124.64 138.463 123.605 139.214 123.166C140.679 122.311 142.363 121.859 144.082 121.859C149.443 121.859 153.804 126.22 153.804 131.581C153.804 136.942 149.443 141.304 144.082 141.304Z" fill="#D3D3D3"/>
<path d="M65.3478 54.6775V58.5827C65.3478 59.1988 65.8473 59.6984 66.4635 59.6984H163.737C164.353 59.6984 164.852 60.1979 164.852 60.8141V90.534C164.852 91.1502 164.353 91.6497 163.737 91.6497H54.4085C54.0559 91.6497 53.7175 91.4861 53.5109 91.2002C52.6241 89.9733 53.4802 88.6438 54.6471 88.6438H58.4523C58.4967 88.6438 58.5411 88.6412 58.5853 88.6358L60.2288 88.4385C60.4777 88.4087 60.7141 88.3006 60.8863 88.1184C63.96 84.8656 61.6841 81.0062 58.5237 81.0062H38.4012C37.7851 81.0062 37.2855 81.5058 37.2855 82.1219V103.847C37.2855 104.463 37.7851 104.962 38.4012 104.962H86.8848C89.9986 104.962 92.5228 107.486 92.5228 110.6V114.484C92.5228 115.1 93.0223 115.6 93.6385 115.6H163.737C164.353 115.6 164.853 116.099 164.853 116.715V146.446C164.853 147.063 164.353 147.562 163.737 147.562H54.4084C54.0559 147.562 53.7175 147.398 53.5109 147.113C52.624 145.886 53.4801 144.556 54.647 144.556H85.6703C85.6799 144.556 85.6888 144.553 85.6983 144.553C88.9208 144.553 91.2237 140.541 87.8737 137.25C87.6603 137.04 87.3753 136.916 87.076 136.916H38.401C37.7849 136.916 37.2853 137.416 37.2853 138.032V166.206C37.2853 166.822 37.7849 167.322 38.401 167.322H48.4483C48.8182 167.322 49.1694 167.142 49.3712 166.832C51.6013 163.405 55.4748 161.26 59.6183 161.26C63.7606 161.26 67.6448 163.406 69.8912 166.835C70.0932 167.143 70.4433 167.322 70.812 167.322H81.0172C81.386 167.322 81.7361 167.143 81.9381 166.835C84.1837 163.406 88.0641 161.26 92.201 161.26C96.3501 161.26 100.227 163.405 102.458 166.832C102.66 167.142 103.011 167.322 103.381 167.322H114.502C114.874 167.322 115.226 167.139 115.428 166.827C117.602 163.465 121.297 161.369 125.395 161.261C125.408 161.26 125.422 161.26 125.435 161.26H125.695C125.709 161.26 125.722 161.26 125.735 161.261C129.815 161.369 133.51 163.466 135.698 166.83C135.901 167.14 136.252 167.322 136.622 167.322H147.745C148.114 167.322 148.464 167.143 148.666 166.834C150.911 163.406 154.788 161.26 158.919 161.26C163.071 161.26 166.955 163.405 169.194 166.833C169.396 167.143 169.747 167.322 170.116 167.322H178.884C179.501 167.322 180 166.822 180 166.206V1.1157C180 0.499527 179.501 0 178.884 0H170.116C169.747 0 169.396 0.179291 169.194 0.488347C166.955 3.91603 163.071 6.06157 158.919 6.06157C154.788 6.06157 150.911 3.91565 148.666 0.487375C148.464 0.178804 148.114 0 147.745 0H136.622C136.251 0 135.9 0.181232 135.698 0.49194C133.51 3.85562 129.815 5.95269 125.735 6.06108C125.722 6.06147 125.709 6.06166 125.695 6.06166H125.435C125.422 6.06166 125.408 6.06147 125.395 6.06108C121.297 5.9523 117.602 3.85631 115.428 0.494666C115.226 0.182502 114.874 0 114.502 0H103.381C103.011 0 102.66 0.17998 102.458 0.490007C100.227 3.91672 96.3501 6.06166 92.2009 6.06166C88.064 6.06166 84.1836 3.91565 81.938 0.48728C81.736 0.178807 81.3858 0 81.0171 0H70.8118C70.4431 0 70.093 0.178714 69.891 0.48709C67.6446 3.91556 63.7605 6.06166 59.6181 6.06166C55.4746 6.06166 51.6011 3.91682 49.371 0.490197C49.1691 0.180072 48.8181 0 48.4481 0H38.4008C37.7847 0 37.2852 0.499527 37.2852 1.1157V47.9363C37.2852 48.5524 37.7847 49.0519 38.4008 49.0519H59.7221C62.8292 49.0519 65.3478 51.5706 65.3478 54.6775ZM132.362 28.4625C132.486 28.3791 132.632 28.3356 132.779 28.3145L140.475 27.2153C140.839 27.1633 141.153 26.9359 141.317 26.607L144.82 19.5511C145.009 19.1716 145.396 18.9316 145.82 18.9316H146.301C146.727 18.9316 147.115 19.1738 147.303 19.5559L150.773 26.63C150.934 26.9597 151.248 27.1887 151.611 27.2424L159.302 28.3789C159.449 28.4006 159.595 28.4447 159.718 28.5287C160.638 29.157 160.646 30.2915 159.994 30.9244L154.512 36.2425C154.248 36.4982 154.127 36.8671 154.188 37.2292L155.483 44.8913C155.508 45.0354 155.511 45.185 155.471 45.3255C155.249 46.1082 154.617 46.5138 153.979 46.5138C153.739 46.5138 153.498 46.4562 153.277 46.3395L146.525 42.7688C146.2 42.5972 145.812 42.5962 145.486 42.7663L138.608 46.3613C138.445 46.4462 138.263 46.4937 138.08 46.4905C137.021 46.4721 136.389 45.5853 136.54 44.7146L137.85 37.1898C137.913 36.828 137.794 36.4584 137.531 36.2014L132.075 30.8569C131.425 30.221 131.439 29.0869 132.362 28.4625ZM88.384 20.6407C88.5076 20.5569 88.6541 20.5132 88.802 20.492L101.083 18.7381C101.446 18.6862 101.761 18.4587 101.924 18.1298L107.381 7.14102C107.635 6.62858 108.173 6.30933 108.73 6.30661C109.302 6.30787 109.824 6.63402 110.076 7.14753L115.479 18.1626C115.641 18.4924 115.955 18.7213 116.318 18.775L128.589 20.5885C128.737 20.6102 128.883 20.6544 129.006 20.7383C129.925 21.3668 129.934 22.5011 129.281 23.1342L120.475 31.6765C120.212 31.9321 120.091 32.3012 120.152 32.6633L122.219 44.8913C122.243 45.0354 122.246 45.185 122.207 45.3255C121.985 46.1082 121.352 46.5138 120.715 46.5138C120.474 46.5138 120.233 46.4562 120.012 46.3395L109.167 40.604C108.842 40.4324 108.454 40.4314 108.128 40.6015L97.2547 46.2842C96.471 46.694 95.4326 46.3602 95.0939 45.3572C95.0354 45.1839 95.0254 44.9964 95.0567 44.8163L97.1814 32.6076C97.2443 32.2458 97.1252 31.8762 96.8629 31.6192L88.0982 23.0342C87.449 22.3985 87.4624 21.266 88.384 20.6407ZM57.6732 28.4625C57.7965 28.3791 57.9427 28.3356 58.09 28.3145L65.786 27.2153C66.1496 27.1633 66.4643 26.9359 66.6275 26.607L70.1312 19.5511C70.3196 19.1716 70.7067 18.9316 71.1305 18.9316H71.6118C72.0375 18.9316 72.426 19.1738 72.6134 19.5559L76.0836 26.63C76.2453 26.9597 76.5589 27.1887 76.9221 27.2424L84.6127 28.3789C84.76 28.4006 84.9058 28.4448 85.0287 28.5287C85.9484 29.1573 85.9573 30.2915 85.3046 30.9246L79.8223 36.2427C79.5587 36.4984 79.4379 36.8674 79.4991 37.2294L80.794 44.8912C80.8184 45.0353 80.8218 45.1848 80.782 45.3254C80.5599 46.1081 79.9275 46.5137 79.2899 46.5137C79.0495 46.5137 78.8083 46.4561 78.5875 46.3394L71.8355 42.7687C71.5109 42.597 71.1226 42.5961 70.7972 42.7662L63.9173 46.3619C63.7541 46.4472 63.5712 46.4949 63.3871 46.4911C62.3305 46.4694 61.6998 45.5841 61.851 44.7145L63.1606 37.1896C63.2235 36.8278 63.1045 36.4582 62.8421 36.2012L57.3857 30.8567C56.7363 30.221 56.75 29.0869 57.6732 28.4625Z" fill="#D3D3D3"/>
<path d="M93.638 118.606C93.0218 118.606 92.5223 119.105 92.5223 119.721V140.735C92.5223 141.558 92.3759 142.346 92.108 143.077C91.844 143.797 92.3941 144.557 93.1609 144.557H124.493C125.109 144.557 125.609 144.057 125.609 143.441V119.721C125.609 119.105 125.109 118.606 124.493 118.606L93.638 118.606ZM119.096 132.644L110.061 141.679C109.767 141.972 109.383 142.119 108.998 142.119C108.613 142.119 108.229 141.972 107.935 141.679L98.6263 132.37C98.1906 131.934 98.1906 131.228 98.6263 130.792L108.209 121.209C108.645 120.774 109.351 120.774 109.787 121.209L119.096 130.518C119.378 130.8 119.536 131.182 119.536 131.581C119.536 131.98 119.378 132.362 119.096 132.644Z" fill="#D3D3D3"/>
<path d="M102.614 132.107L108.472 137.965C108.763 138.256 109.234 138.256 109.524 137.965L115.382 132.107C115.673 131.817 115.673 131.346 115.382 131.055L109.524 125.197C109.234 124.907 108.763 124.907 108.472 125.197L102.614 131.055C102.324 131.346 102.324 131.817 102.614 132.107Z" fill="#D3D3D3"/>
<path d="M92.3877 63.8197V87.528C92.3877 88.1442 92.8872 88.6437 93.5034 88.6437H124.493C125.109 88.6437 125.609 88.1442 125.609 87.528V63.8197C125.609 63.2035 125.109 62.704 124.493 62.704H93.5034C92.8872 62.704 92.3877 63.2035 92.3877 63.8197ZM117.811 68.3086C116.748 68.6543 115.918 69.174 115.281 69.7202C114.746 70.1793 114.758 71.0136 115.315 71.4458C116.155 72.0973 116.829 72.958 117.279 73.9878C118.346 76.431 118.022 79.4142 116.434 81.7735C114.638 84.442 111.691 85.8839 108.693 85.8839C106.905 85.8839 105.098 85.3709 103.507 84.2994C99.2458 81.4315 98.1126 75.6322 100.98 71.3716C102.642 68.9039 105.435 67.3898 108.102 67.5115C109.199 67.5621 110.204 67.881 111.078 68.4349C111.533 68.7232 112.124 68.6311 112.491 68.2364C113.418 67.2382 114.747 66.2062 116.597 65.5473C117.701 65.1537 118.962 66.1316 118.518 67.5962C118.416 67.9335 118.146 68.1996 117.811 68.3086Z" fill="#D3D3D3"/>
<path d="M147.709 73.1141C147.706 73.1137 147.703 73.1122 147.7 73.1118C147.61 73.0971 147.52 73.075 147.43 73.0428C147.42 73.0392 147.412 73.0332 147.402 73.0294C147.365 73.015 147.331 72.9952 147.295 72.9782C147.232 72.9477 147.169 72.9162 147.112 72.8784C147.079 72.8568 147.05 72.8322 147.019 72.808C146.964 72.765 146.912 72.7202 146.864 72.6706C146.837 72.6423 146.811 72.6132 146.786 72.5829C146.741 72.528 146.701 72.4706 146.664 72.4106C146.651 72.3893 146.634 72.3721 146.622 72.3503C145.986 71.187 145.06 70.5692 143.869 70.5144C143.814 70.5119 143.758 70.5106 143.702 70.5106C142.132 70.5106 140.414 71.5135 139.38 73.0504C138.439 74.4483 138.099 76.1288 138.422 77.7826C138.745 79.4363 139.693 80.8654 141.09 81.8061C143.976 83.7483 147.904 82.9811 149.846 80.0953C150.851 78.6036 151.08 76.6786 150.43 75.1912C150.076 74.3822 149.318 73.3651 147.709 73.1141Z" fill="#D3D3D3"/>
<path d="M35.7821 78.0002C35.7831 78.0002 35.7841 78.0004 35.7853 78.0004H58.5231C59.1936 78.0004 59.8417 78.0976 60.4542 78.2786C61.3988 78.5578 62.3417 77.8331 62.3417 76.8481V56.8264C62.3417 54.1928 60.2067 52.058 57.5732 52.058H35.8056C35.7976 52.058 35.7901 52.0601 35.7822 52.0601C35.7742 52.0601 35.7667 52.058 35.7587 52.058H1.48759C0.666 52.058 0 52.724 0 53.5456V76.5129C0 77.3344 0.666 78.0004 1.48759 78.0004H35.7789C35.7799 78.0003 35.7809 78.0002 35.7821 78.0002Z" fill="#D3D3D3"/>
<path d="M128.614 63.8197V87.528C128.614 88.1442 129.114 88.6437 129.73 88.6437H160.731C161.347 88.6437 161.846 88.1442 161.846 87.528V63.8197C161.846 63.2035 161.347 62.704 160.731 62.704H129.73C129.114 62.704 128.614 63.2035 128.614 63.8197ZM153.718 68.3086C152.654 68.6543 151.825 69.174 151.188 69.7202C150.653 70.1793 150.665 71.0136 151.222 71.4459C152.062 72.0974 152.735 72.9581 153.185 73.9879C154.252 76.4311 153.929 79.4143 152.341 81.7736C150.544 84.4421 147.598 85.884 144.6 85.884C141.731 85.884 138.815 84.5639 136.814 81.7363C136.791 81.7032 136.768 81.6684 136.747 81.6336C134.721 78.2692 134.864 74.3774 136.887 71.3716C138.548 68.9039 141.344 67.3898 144.008 67.5115C145.106 67.5621 146.11 67.8809 146.985 68.4348C147.44 68.7231 148.03 68.631 148.397 68.2363C149.325 67.238 150.653 66.206 152.503 65.5473C153.607 65.154 154.868 66.1307 154.425 67.5955C154.323 67.9332 154.054 68.1995 153.718 68.3086Z" fill="#D3D3D3"/>
</svg>
