<svg width="700" height="140" viewBox="0 0 700 140" fill="none" xmlns="http://www.w3.org/2000/svg">
<g clip-path="url(#clip0_71_3357)">
<rect x="89" width="523" height="140" fill="#D3D3D3"/>
<g clip-path="url(#clip1_71_3357)">
<path d="M699.5 10.6C699.8 10.4 700 10.1 700 9.7V1.1C700 0.5 699.5 0 698.9 0H560V140H698.9C699.5 140 700 139.5 700 138.9V129C700 128.6 699.8 128.3 699.5 128.1C696.1 125.9 694 122.1 694 118C694 113.9 696.1 110.1 699.5 107.9C699.8 107.7 700 107.4 700 107V97C700 96.6 699.8 96.3 699.5 96.1C696.1 93.9 694 90.1 694 86C694 81.9 696.1 78.1 699.5 75.9C699.8 75.7 700 75.4 700 75V64.3C700 63.9 699.8 63.6 699.5 63.4C696.2 61.3 694.2 57.6 694 53.6V53.3C694.1 49.3 696.2 45.7 699.5 43.5C699.8 43.3 700 43 700 42.6V31.6C700 31.2 699.8 30.9 699.5 30.7C696.1 28.5 694 24.7 694 20.6C694.1 16.6 696.2 12.8 699.5 10.6Z" fill="#D3D3D3"/>
</g>
<g clip-path="url(#clip2_71_3357)">
<path d="M0.499999 129.4C0.199996 129.6 -8.8297e-07 129.9 -8.48001e-07 130.3L-9.61651e-08 138.9C-4.37114e-08 139.5 0.5 140 1.10001 140L140 140L140 0L1.09999 1.2143e-05C0.499988 1.21955e-05 -1.21955e-05 0.500012 -1.2143e-05 1.10002L-1.12775e-05 11C-1.12426e-05 11.4 0.199986 11.7 0.499989 11.9C3.89998 14.1 5.99999 17.9 5.99999 22C5.99999 26.1 3.89998 29.9 0.499991 32.1C0.199988 32.3 -9.38921e-06 32.6 -9.35424e-06 33L-8.48001e-06 43C-8.44504e-06 43.4 0.199989 43.7 0.499992 43.9C3.89999 46.1 5.99999 49.9 5.99999 54C5.99999 58.1 3.89999 61.9 0.499993 64.1C0.19999 64.3 -6.59168e-06 64.6 -6.55671e-06 65L-5.62128e-06 75.7C-5.58632e-06 76.1 0.199991 76.4 0.499994 76.6C3.8 78.7 5.8 82.4 6 86.4L6 86.7C5.89999 90.7 3.8 94.3 0.499996 96.5C0.199993 96.7 -3.75918e-06 97 -3.72421e-06 97.4L-2.76256e-06 108.4C-2.72759e-06 108.8 0.199994 109.1 0.499997 109.3C3.89999 111.5 6 115.3 6 119.4C5.89999 123.4 3.8 127.2 0.499999 129.4Z" fill="#D3D3D3"/>
</g>
<path d="M283.702 47.4545H295.838L308.656 78.7273H309.202L322.02 47.4545H334.156V94H324.611V63.7045H324.224L312.179 93.7727H305.679L293.634 63.5909H293.247V94H283.702V47.4545ZM342.082 94V59.0909H351.764V94H342.082ZM346.946 54.5909C345.507 54.5909 344.272 54.1136 343.241 53.1591C342.226 52.1894 341.719 51.0303 341.719 49.6818C341.719 48.3485 342.226 47.2045 343.241 46.25C344.272 45.2803 345.507 44.7955 346.946 44.7955C348.385 44.7955 349.613 45.2803 350.628 46.25C351.658 47.2045 352.173 48.3485 352.173 49.6818C352.173 51.0303 351.658 52.1894 350.628 53.1591C349.613 54.1136 348.385 54.5909 346.946 54.5909ZM369.202 73.8182V94H359.52V59.0909H368.747V65.25H369.156C369.929 63.2197 371.224 61.6136 373.043 60.4318C374.861 59.2348 377.065 58.6364 379.656 58.6364C382.08 58.6364 384.194 59.1667 385.997 60.2273C387.8 61.2879 389.202 62.803 390.202 64.7727C391.202 66.7273 391.702 69.0606 391.702 71.7727V94H382.02V73.5C382.035 71.3636 381.49 69.697 380.384 68.5C379.277 67.2879 377.755 66.6818 375.815 66.6818C374.512 66.6818 373.361 66.9621 372.361 67.5227C371.376 68.0833 370.603 68.9015 370.043 69.9773C369.497 71.0379 369.217 72.3182 369.202 73.8182ZM417.901 59.0909V66.3636H396.878V59.0909H417.901ZM401.651 50.7273H411.332V83.2727C411.332 84.1667 411.469 84.8636 411.741 85.3636C412.014 85.8485 412.393 86.1894 412.878 86.3864C413.378 86.5833 413.954 86.6818 414.605 86.6818C415.06 86.6818 415.514 86.6439 415.969 86.5682C416.423 86.4773 416.772 86.4091 417.014 86.3636L418.537 93.5682C418.052 93.7197 417.37 93.8939 416.491 94.0909C415.613 94.303 414.545 94.4318 413.287 94.4773C410.954 94.5682 408.908 94.2576 407.151 93.5455C405.408 92.8333 404.052 91.7273 403.082 90.2273C402.113 88.7273 401.635 86.8333 401.651 84.5455V50.7273Z" fill="#323232"/>
</g>
<defs>
<clipPath id="clip0_71_3357">
<rect width="700" height="140" fill="white"/>
</clipPath>
<clipPath id="clip1_71_3357">
<rect width="140" height="140" fill="white" transform="translate(560)"/>
</clipPath>
<clipPath id="clip2_71_3357">
<rect width="140" height="140" fill="white" transform="translate(140 140) rotate(180)"/>
</clipPath>
</defs>
</svg>
