<svg width="700" height="140" viewBox="0 0 700 140" fill="none" xmlns="http://www.w3.org/2000/svg">
<g clip-path="url(#clip0_350_2481)">
<path d="M699.5 10.6C699.8 10.4 700 10.1 700 9.7V1.1C700 0.5 699.5 0 698.9 0H1.1C0.5 0 0 0.5 0 1.1V11C0 11.4 0.2 11.7 0.5 11.9C3.9 14.1 6 17.9 6 22C6 26.1 3.9 29.9 0.5 32.1C0.2 32.3 0 32.6 0 33V43C0 43.4 0.2 43.7 0.5 43.9C3.9 46.1 6 49.9 6 54C6 58.1 3.9 61.9 0.5 64.1C0.2 64.3 0 64.6 0 65V75.7C0 76.1 0.2 76.4 0.5 76.6C3.8 78.7 5.8 82.4 6 86.4V86.7C5.9 90.7 3.8 94.3 0.5 96.5C0.2 96.7 0 97 0 97.4V108.4C0 108.8 0.2 109.1 0.5 109.3C3.9 111.5 6 115.3 6 119.4C5.9 123.4 3.8 127.2 0.5 129.4C0.2 129.6 0 129.9 0 130.3V138.9C0 139.5 0.5 140 1.1 140H698.9C699.5 140 700 139.5 700 138.9V129C700 128.6 699.8 128.3 699.5 128.1C696.1 125.9 694 122.1 694 118C694 113.9 696.1 110.1 699.5 107.9C699.8 107.7 700 107.4 700 107V97C700 96.6 699.8 96.3 699.5 96.1C696.1 93.9 694 90.1 694 86C694 81.9 696.1 78.1 699.5 75.9C699.8 75.7 700 75.4 700 75V64.3C700 63.9 699.8 63.6 699.5 63.4C696.2 61.3 694.2 57.6 694 53.6V53.3C694.1 49.3 696.2 45.7 699.5 43.5C699.8 43.3 700 43 700 42.6V31.6C700 31.2 699.8 30.9 699.5 30.7C696.1 28.5 694 24.7 694 20.6C694.1 16.6 696.2 12.8 699.5 10.6Z" fill="#323232"/>
<path d="M120.889 59.8409C120.707 58.0076 119.927 56.5833 118.548 55.5682C117.17 54.553 115.298 54.0455 112.935 54.0455C111.329 54.0455 109.973 54.2727 108.866 54.7273C107.76 55.1667 106.912 55.7803 106.321 56.5682C105.745 57.3561 105.457 58.25 105.457 59.25C105.427 60.0833 105.601 60.8106 105.98 61.4318C106.374 62.053 106.912 62.5909 107.594 63.0455C108.276 63.4848 109.063 63.8712 109.957 64.2045C110.851 64.5227 111.806 64.7955 112.821 65.0227L117.003 66.0227C119.033 66.4773 120.897 67.0833 122.594 67.8409C124.291 68.5985 125.76 69.5303 127.003 70.6364C128.245 71.7424 129.207 73.0455 129.889 74.5455C130.586 76.0455 130.942 77.7652 130.957 79.7045C130.942 82.553 130.215 85.0227 128.776 87.1136C127.351 89.1894 125.291 90.803 122.594 91.9545C119.912 93.0909 116.677 93.6591 112.889 93.6591C109.132 93.6591 105.859 93.0833 103.071 91.9318C100.298 90.7803 98.1316 89.0758 96.571 86.8182C95.0256 84.5455 94.215 81.7348 94.1392 78.3864H103.662C103.768 79.947 104.215 81.25 105.003 82.2955C105.806 83.3258 106.874 84.1061 108.207 84.6364C109.556 85.1515 111.079 85.4091 112.776 85.4091C114.442 85.4091 115.889 85.1667 117.116 84.6818C118.359 84.197 119.321 83.5227 120.003 82.6591C120.685 81.7955 121.026 80.803 121.026 79.6818C121.026 78.6364 120.715 77.7576 120.094 77.0455C119.488 76.3333 118.594 75.7273 117.412 75.2273C116.245 74.7273 114.813 74.2727 113.116 73.8636L108.048 72.5909C104.124 71.6364 101.026 70.1439 98.7528 68.1136C96.4801 66.0833 95.3513 63.3485 95.3665 59.9091C95.3513 57.0909 96.1013 54.6288 97.6165 52.5227C99.1468 50.4167 101.245 48.7727 103.912 47.5909C106.579 46.4091 109.609 45.8182 113.003 45.8182C116.457 45.8182 119.473 46.4091 122.048 47.5909C124.639 48.7727 126.654 50.4167 128.094 52.5227C129.533 54.6288 130.276 57.0682 130.321 59.8409H120.889ZM153.304 93.6818C149.713 93.6818 146.622 92.9545 144.031 91.5C141.455 90.0303 139.471 87.9545 138.077 85.2727C136.683 82.5758 135.986 79.3864 135.986 75.7045C135.986 72.1136 136.683 68.9621 138.077 66.25C139.471 63.5379 141.433 61.4242 143.963 59.9091C146.509 58.3939 149.493 57.6364 152.918 57.6364C155.221 57.6364 157.365 58.0076 159.349 58.75C161.349 59.4773 163.092 60.5758 164.577 62.0455C166.077 63.5152 167.243 65.3636 168.077 67.5909C168.91 69.803 169.327 72.3939 169.327 75.3636V78.0227H139.849V72.0227H160.213C160.213 70.6288 159.91 69.3939 159.304 68.3182C158.698 67.2424 157.857 66.4015 156.781 65.7955C155.721 65.1742 154.486 64.8636 153.077 64.8636C151.607 64.8636 150.304 65.2045 149.168 65.8864C148.046 66.553 147.168 67.4545 146.531 68.5909C145.895 69.7121 145.569 70.9621 145.554 72.3409V78.0455C145.554 79.7727 145.872 81.2652 146.509 82.5227C147.16 83.7803 148.077 84.75 149.259 85.4318C150.44 86.1136 151.842 86.4545 153.463 86.4545C154.539 86.4545 155.524 86.303 156.418 86C157.312 85.697 158.077 85.2424 158.713 84.6364C159.349 84.0303 159.834 83.2879 160.168 82.4091L169.122 83C168.668 85.1515 167.736 87.0303 166.327 88.6364C164.933 90.2273 163.13 91.4697 160.918 92.3636C158.721 93.2424 156.183 93.6818 153.304 93.6818ZM185.327 46.4545V93H175.645V46.4545H185.327ZM202.764 46.4545V93H193.082V46.4545H202.764ZM241.105 93.6818C237.575 93.6818 234.522 92.9318 231.946 91.4318C229.385 89.9167 227.408 87.8106 226.014 85.1136C224.62 82.4015 223.923 79.2576 223.923 75.6818C223.923 72.0758 224.62 68.9242 226.014 66.2273C227.408 63.5152 229.385 61.4091 231.946 59.9091C234.522 58.3939 237.575 57.6364 241.105 57.6364C244.635 57.6364 247.681 58.3939 250.241 59.9091C252.817 61.4091 254.802 63.5152 256.196 66.2273C257.59 68.9242 258.287 72.0758 258.287 75.6818C258.287 79.2576 257.59 82.4015 256.196 85.1136C254.802 87.8106 252.817 89.9167 250.241 91.4318C247.681 92.9318 244.635 93.6818 241.105 93.6818ZM241.151 86.1818C242.757 86.1818 244.098 85.7273 245.173 84.8182C246.249 83.8939 247.06 82.6364 247.605 81.0455C248.166 79.4545 248.446 77.6439 248.446 75.6136C248.446 73.5833 248.166 71.7727 247.605 70.1818C247.06 68.5909 246.249 67.3333 245.173 66.4091C244.098 65.4848 242.757 65.0227 241.151 65.0227C239.529 65.0227 238.166 65.4848 237.06 66.4091C235.969 67.3333 235.143 68.5909 234.582 70.1818C234.037 71.7727 233.764 73.5833 233.764 75.6136C233.764 77.6439 234.037 79.4545 234.582 81.0455C235.143 82.6364 235.969 83.8939 237.06 84.8182C238.166 85.7273 239.529 86.1818 241.151 86.1818ZM274.264 72.8182V93H264.582V58.0909H273.81V64.25H274.219C274.991 62.2197 276.287 60.6136 278.105 59.4318C279.923 58.2348 282.128 57.6364 284.719 57.6364C287.143 57.6364 289.257 58.1667 291.06 59.2273C292.863 60.2879 294.264 61.803 295.264 63.7727C296.264 65.7273 296.764 68.0606 296.764 70.7727V93H287.082V72.5C287.098 70.3636 286.552 68.697 285.446 67.5C284.34 66.2879 282.817 65.6818 280.878 65.6818C279.575 65.6818 278.423 65.9621 277.423 66.5227C276.438 67.0833 275.666 67.9015 275.105 68.9773C274.56 70.0379 274.279 71.3182 274.264 72.8182ZM350.253 61.5C349.935 60.3939 349.488 59.4167 348.912 58.5682C348.336 57.7045 347.632 56.9773 346.798 56.3864C345.98 55.7803 345.041 55.3182 343.98 55C342.935 54.6818 341.776 54.5227 340.503 54.5227C338.124 54.5227 336.033 55.1136 334.23 56.2955C332.442 57.4773 331.048 59.197 330.048 61.4545C329.048 63.697 328.548 66.4394 328.548 69.6818C328.548 72.9242 329.041 75.6818 330.026 77.9545C331.01 80.2273 332.404 81.9621 334.207 83.1591C336.01 84.3409 338.139 84.9318 340.594 84.9318C342.821 84.9318 344.723 84.5379 346.298 83.75C347.889 82.947 349.101 81.8182 349.935 80.3636C350.783 78.9091 351.207 77.1894 351.207 75.2045L353.207 75.5H341.207V68.0909H360.685V73.9545C360.685 78.0455 359.821 81.5606 358.094 84.5C356.366 87.4242 353.988 89.6818 350.957 91.2727C347.927 92.8485 344.457 93.6364 340.548 93.6364C336.185 93.6364 332.351 92.6742 329.048 90.75C325.745 88.8106 323.17 86.0606 321.321 82.5C319.488 78.9242 318.571 74.6818 318.571 69.7727C318.571 66 319.116 62.6364 320.207 59.6818C321.313 56.7121 322.859 54.197 324.844 52.1364C326.829 50.0758 329.139 48.5076 331.776 47.4318C334.412 46.3561 337.268 45.8182 340.344 45.8182C342.98 45.8182 345.435 46.2045 347.707 46.9773C349.98 47.7348 351.995 48.8106 353.753 50.2045C355.526 51.5985 356.973 53.2576 358.094 55.1818C359.215 57.0909 359.935 59.197 360.253 61.5H350.253ZM383.804 93.6818C380.213 93.6818 377.122 92.9545 374.531 91.5C371.955 90.0303 369.971 87.9545 368.577 85.2727C367.183 82.5758 366.486 79.3864 366.486 75.7045C366.486 72.1136 367.183 68.9621 368.577 66.25C369.971 63.5379 371.933 61.4242 374.463 59.9091C377.009 58.3939 379.993 57.6364 383.418 57.6364C385.721 57.6364 387.865 58.0076 389.849 58.75C391.849 59.4773 393.592 60.5758 395.077 62.0455C396.577 63.5152 397.743 65.3636 398.577 67.5909C399.41 69.803 399.827 72.3939 399.827 75.3636V78.0227H370.349V72.0227H390.713C390.713 70.6288 390.41 69.3939 389.804 68.3182C389.198 67.2424 388.357 66.4015 387.281 65.7955C386.221 65.1742 384.986 64.8636 383.577 64.8636C382.107 64.8636 380.804 65.2045 379.668 65.8864C378.546 66.553 377.668 67.4545 377.031 68.5909C376.395 69.7121 376.069 70.9621 376.054 72.3409V78.0455C376.054 79.7727 376.372 81.2652 377.009 82.5227C377.66 83.7803 378.577 84.75 379.759 85.4318C380.94 86.1136 382.342 86.4545 383.963 86.4545C385.039 86.4545 386.024 86.303 386.918 86C387.812 85.697 388.577 85.2424 389.213 84.6364C389.849 84.0303 390.334 83.2879 390.668 82.4091L399.622 83C399.168 85.1515 398.236 87.0303 396.827 88.6364C395.433 90.2273 393.63 91.4697 391.418 92.3636C389.221 93.2424 386.683 93.6818 383.804 93.6818ZM424.713 58.0909V65.3636H403.69V58.0909H424.713ZM408.463 49.7273H418.145V82.2727C418.145 83.1667 418.281 83.8636 418.554 84.3636C418.827 84.8485 419.205 85.1894 419.69 85.3864C420.19 85.5833 420.766 85.6818 421.418 85.6818C421.872 85.6818 422.327 85.6439 422.781 85.5682C423.236 85.4773 423.584 85.4091 423.827 85.3636L425.349 92.5682C424.865 92.7197 424.183 92.8939 423.304 93.0909C422.425 93.303 421.357 93.4318 420.099 93.4773C417.766 93.5682 415.721 93.2576 413.963 92.5455C412.221 91.8333 410.865 90.7273 409.895 89.2273C408.925 87.7273 408.448 85.8333 408.463 83.5455V49.7273ZM462.065 61.5C461.747 60.3939 461.3 59.4167 460.724 58.5682C460.149 57.7045 459.444 56.9773 458.611 56.3864C457.793 55.7803 456.853 55.3182 455.793 55C454.747 54.6818 453.588 54.5227 452.315 54.5227C449.937 54.5227 447.846 55.1136 446.043 56.2955C444.255 57.4773 442.861 59.197 441.861 61.4545C440.861 63.697 440.361 66.4394 440.361 69.6818C440.361 72.9242 440.853 75.6818 441.838 77.9545C442.823 80.2273 444.217 81.9621 446.02 83.1591C447.823 84.3409 449.952 84.9318 452.406 84.9318C454.634 84.9318 456.535 84.5379 458.111 83.75C459.702 82.947 460.914 81.8182 461.747 80.3636C462.596 78.9091 463.02 77.1894 463.02 75.2045L465.02 75.5H453.02V68.0909H472.497V73.9545C472.497 78.0455 471.634 81.5606 469.906 84.5C468.179 87.4242 465.8 89.6818 462.77 91.2727C459.74 92.8485 456.27 93.6364 452.361 93.6364C447.997 93.6364 444.164 92.6742 440.861 90.75C437.558 88.8106 434.982 86.0606 433.134 82.5C431.3 78.9242 430.384 74.6818 430.384 69.7727C430.384 66 430.929 62.6364 432.02 59.6818C433.126 56.7121 434.671 54.197 436.656 52.1364C438.641 50.0758 440.952 48.5076 443.588 47.4318C446.224 46.3561 449.08 45.8182 452.156 45.8182C454.793 45.8182 457.247 46.2045 459.52 46.9773C461.793 47.7348 463.808 48.8106 465.565 50.2045C467.338 51.5985 468.785 53.2576 469.906 55.1818C471.027 57.0909 471.747 59.197 472.065 61.5H462.065ZM495.616 93.6818C492.026 93.6818 488.935 92.9545 486.344 91.5C483.768 90.0303 481.783 87.9545 480.389 85.2727C478.995 82.5758 478.298 79.3864 478.298 75.7045C478.298 72.1136 478.995 68.9621 480.389 66.25C481.783 63.5379 483.745 61.4242 486.276 59.9091C488.821 58.3939 491.806 57.6364 495.23 57.6364C497.533 57.6364 499.677 58.0076 501.662 58.75C503.662 59.4773 505.404 60.5758 506.889 62.0455C508.389 63.5152 509.556 65.3636 510.389 67.5909C511.223 69.803 511.639 72.3939 511.639 75.3636V78.0227H482.162V72.0227H502.526C502.526 70.6288 502.223 69.3939 501.616 68.3182C501.01 67.2424 500.17 66.4015 499.094 65.7955C498.033 65.1742 496.798 64.8636 495.389 64.8636C493.92 64.8636 492.616 65.2045 491.48 65.8864C490.359 66.553 489.48 67.4545 488.844 68.5909C488.207 69.7121 487.882 70.9621 487.866 72.3409V78.0455C487.866 79.7727 488.185 81.2652 488.821 82.5227C489.473 83.7803 490.389 84.75 491.571 85.4318C492.753 86.1136 494.154 86.4545 495.776 86.4545C496.851 86.4545 497.836 86.303 498.73 86C499.624 85.697 500.389 85.2424 501.026 84.6364C501.662 84.0303 502.147 83.2879 502.48 82.4091L511.435 83C510.98 85.1515 510.048 87.0303 508.639 88.6364C507.245 90.2273 505.442 91.4697 503.23 92.3636C501.033 93.2424 498.495 93.6818 495.616 93.6818ZM517.957 93V58.0909H527.185V64.25H527.594C528.321 62.2045 529.533 60.5909 531.23 59.4091C532.927 58.2273 534.957 57.6364 537.321 57.6364C539.715 57.6364 541.753 58.2348 543.435 59.4318C545.116 60.6136 546.238 62.2197 546.798 64.25H547.162C547.874 62.25 549.162 60.6515 551.026 59.4545C552.904 58.2424 555.124 57.6364 557.685 57.6364C560.942 57.6364 563.586 58.6742 565.616 60.75C567.662 62.8106 568.685 65.7348 568.685 69.5227V93H559.026V71.4318C559.026 69.4924 558.51 68.0379 557.48 67.0682C556.45 66.0985 555.162 65.6136 553.616 65.6136C551.859 65.6136 550.488 66.1742 549.503 67.2955C548.518 68.4015 548.026 69.8636 548.026 71.6818V93H538.639V71.2273C538.639 69.5152 538.147 68.1515 537.162 67.1364C536.192 66.1212 534.912 65.6136 533.321 65.6136C532.245 65.6136 531.276 65.8864 530.412 66.4318C529.563 66.9621 528.889 67.7121 528.389 68.6818C527.889 69.6364 527.639 70.7576 527.639 72.0455V93H517.957ZM605.378 68.0455L596.514 68.5909C596.363 67.8333 596.037 67.1515 595.537 66.5455C595.037 65.9242 594.378 65.4318 593.56 65.0682C592.757 64.6894 591.795 64.5 590.673 64.5C589.173 64.5 587.908 64.8182 586.878 65.4545C585.848 66.0758 585.332 66.9091 585.332 67.9545C585.332 68.7879 585.666 69.4924 586.332 70.0682C586.999 70.6439 588.143 71.1061 589.764 71.4545L596.082 72.7273C599.476 73.4242 602.007 74.5455 603.673 76.0909C605.34 77.6364 606.173 79.6667 606.173 82.1818C606.173 84.4697 605.499 86.4773 604.151 88.2045C602.817 89.9318 600.984 91.2803 598.651 92.25C596.332 93.2045 593.658 93.6818 590.628 93.6818C586.007 93.6818 582.325 92.7197 579.582 90.7955C576.855 88.8561 575.257 86.2197 574.787 82.8864L584.31 82.3864C584.598 83.7955 585.295 84.8712 586.401 85.6136C587.507 86.3409 588.923 86.7045 590.651 86.7045C592.348 86.7045 593.711 86.3788 594.741 85.7273C595.787 85.0606 596.317 84.2045 596.332 83.1591C596.317 82.2803 595.946 81.5606 595.219 81C594.491 80.4242 593.37 79.9848 591.855 79.6818L585.81 78.4773C582.401 77.7955 579.863 76.6136 578.196 74.9318C576.545 73.25 575.719 71.1061 575.719 68.5C575.719 66.2576 576.325 64.3258 577.537 62.7045C578.764 61.0833 580.484 59.8333 582.696 58.9545C584.923 58.0758 587.529 57.6364 590.514 57.6364C594.923 57.6364 598.393 58.5682 600.923 60.4318C603.469 62.2955 604.954 64.8333 605.378 68.0455Z" fill="#D3D3D3"/>
</g>
<defs>
<clipPath id="clip0_350_2481">
<rect width="700" height="140" fill="white"/>
</clipPath>
</defs>
</svg>
