<svg width="700" height="140" viewBox="0 0 700 140" fill="none" xmlns="http://www.w3.org/2000/svg">
<g clip-path="url(#clip0_346_2419)">
<rect x="89" width="523" height="140" fill="#D3D3D3"/>
<g clip-path="url(#clip1_346_2419)">
<path d="M699.5 10.6C699.8 10.4 700 10.1 700 9.7V1.1C700 0.5 699.5 0 698.9 0H560V140H698.9C699.5 140 700 139.5 700 138.9V129C700 128.6 699.8 128.3 699.5 128.1C696.1 125.9 694 122.1 694 118C694 113.9 696.1 110.1 699.5 107.9C699.8 107.7 700 107.4 700 107V97C700 96.6 699.8 96.3 699.5 96.1C696.1 93.9 694 90.1 694 86C694 81.9 696.1 78.1 699.5 75.9C699.8 75.7 700 75.4 700 75V64.3C700 63.9 699.8 63.6 699.5 63.4C696.2 61.3 694.2 57.6 694 53.6V53.3C694.1 49.3 696.2 45.7 699.5 43.5C699.8 43.3 700 43 700 42.6V31.6C700 31.2 699.8 30.9 699.5 30.7C696.1 28.5 694 24.7 694 20.6C694.1 16.6 696.2 12.8 699.5 10.6Z" fill="#D3D3D3"/>
</g>
<g clip-path="url(#clip2_346_2419)">
<path d="M0.499999 129.4C0.199996 129.6 -8.8297e-07 129.9 -8.48001e-07 130.3L-9.61651e-08 138.9C-4.37114e-08 139.5 0.5 140 1.10001 140L140 140L140 0L1.09999 1.2143e-05C0.499988 1.21955e-05 -1.21955e-05 0.500012 -1.2143e-05 1.10002L-1.12775e-05 11C-1.12426e-05 11.4 0.199986 11.7 0.499989 11.9C3.89998 14.1 5.99999 17.9 5.99999 22C5.99999 26.1 3.89998 29.9 0.499991 32.1C0.199988 32.3 -9.38921e-06 32.6 -9.35424e-06 33L-8.48001e-06 43C-8.44504e-06 43.4 0.199989 43.7 0.499992 43.9C3.89999 46.1 5.99999 49.9 5.99999 54C5.99999 58.1 3.89999 61.9 0.499993 64.1C0.19999 64.3 -6.59168e-06 64.6 -6.55671e-06 65L-5.62128e-06 75.7C-5.58632e-06 76.1 0.199991 76.4 0.499994 76.6C3.8 78.7 5.8 82.4 6 86.4L6 86.7C5.89999 90.7 3.8 94.3 0.499996 96.5C0.199993 96.7 -3.75918e-06 97 -3.72421e-06 97.4L-2.76256e-06 108.4C-2.72759e-06 108.8 0.199994 109.1 0.499997 109.3C3.89999 111.5 6 115.3 6 119.4C5.89999 123.4 3.8 127.2 0.499999 129.4Z" fill="#D3D3D3"/>
</g>
<path d="M267.568 57.2614C267.295 54.5114 266.125 52.375 264.057 50.8523C261.989 49.3295 259.182 48.5682 255.636 48.5682C253.227 48.5682 251.193 48.9091 249.534 49.5909C247.875 50.25 246.602 51.1705 245.716 52.3523C244.852 53.5341 244.42 54.875 244.42 56.375C244.375 57.625 244.636 58.7159 245.205 59.6477C245.795 60.5795 246.602 61.3864 247.625 62.0682C248.648 62.7273 249.83 63.3068 251.17 63.8068C252.511 64.2841 253.943 64.6932 255.466 65.0341L261.739 66.5341C264.784 67.2159 267.58 68.125 270.125 69.2614C272.67 70.3977 274.875 71.7955 276.739 73.4545C278.602 75.1136 280.045 77.0682 281.068 79.3182C282.114 81.5682 282.648 84.1477 282.67 87.0568C282.648 91.3295 281.557 95.0341 279.398 98.1705C277.261 101.284 274.17 103.705 270.125 105.432C266.102 107.136 261.25 107.989 255.568 107.989C249.932 107.989 245.023 107.125 240.841 105.398C236.682 103.67 233.432 101.114 231.091 97.7273C228.773 94.3182 227.557 90.1023 227.443 85.0795H241.727C241.886 87.4205 242.557 89.375 243.739 90.9432C244.943 92.4886 246.545 93.6591 248.545 94.4545C250.568 95.2273 252.852 95.6136 255.398 95.6136C257.898 95.6136 260.068 95.25 261.909 94.5227C263.773 93.7955 265.216 92.7841 266.239 91.4886C267.261 90.1932 267.773 88.7045 267.773 87.0227C267.773 85.4545 267.307 84.1364 266.375 83.0682C265.466 82 264.125 81.0909 262.352 80.3409C260.602 79.5909 258.455 78.9091 255.909 78.2955L248.307 76.3864C242.42 74.9545 237.773 72.7159 234.364 69.6705C230.955 66.625 229.261 62.5227 229.284 57.3636C229.261 53.1364 230.386 49.4432 232.659 46.2841C234.955 43.125 238.102 40.6591 242.102 38.8864C246.102 37.1136 250.648 36.2273 255.739 36.2273C260.92 36.2273 265.443 37.1136 269.307 38.8864C273.193 40.6591 276.216 43.125 278.375 46.2841C280.534 49.4432 281.648 53.1023 281.716 57.2614H267.568ZM320.179 54.6364V65.5455H288.645V54.6364H320.179ZM295.804 42.0909H310.327V90.9091C310.327 92.25 310.531 93.2955 310.94 94.0455C311.349 94.7727 311.918 95.2841 312.645 95.5795C313.395 95.875 314.259 96.0227 315.236 96.0227C315.918 96.0227 316.599 95.9659 317.281 95.8523C317.963 95.7159 318.486 95.6136 318.849 95.5455L321.134 106.352C320.406 106.58 319.384 106.841 318.065 107.136C316.747 107.455 315.145 107.648 313.259 107.716C309.759 107.852 306.69 107.386 304.054 106.318C301.44 105.25 299.406 103.591 297.952 101.341C296.497 99.0909 295.781 96.25 295.804 92.8182V42.0909ZM352.736 108.023C347.44 108.023 342.861 106.898 338.997 104.648C335.156 102.375 332.19 99.2159 330.099 95.1705C328.009 91.1023 326.963 86.3864 326.963 81.0227C326.963 75.6136 328.009 70.8864 330.099 66.8409C332.19 62.7727 335.156 59.6136 338.997 57.3636C342.861 55.0909 347.44 53.9545 352.736 53.9545C358.031 53.9545 362.599 55.0909 366.44 57.3636C370.304 59.6136 373.281 62.7727 375.372 66.8409C377.463 70.8864 378.509 75.6136 378.509 81.0227C378.509 86.3864 377.463 91.1023 375.372 95.1705C373.281 99.2159 370.304 102.375 366.44 104.648C362.599 106.898 358.031 108.023 352.736 108.023ZM352.804 96.7727C355.213 96.7727 357.224 96.0909 358.838 94.7273C360.452 93.3409 361.668 91.4545 362.486 89.0682C363.327 86.6818 363.747 83.9659 363.747 80.9205C363.747 77.875 363.327 75.1591 362.486 72.7727C361.668 70.3864 360.452 68.5 358.838 67.1136C357.224 65.7273 355.213 65.0341 352.804 65.0341C350.372 65.0341 348.327 65.7273 346.668 67.1136C345.031 68.5 343.793 70.3864 342.952 72.7727C342.134 75.1591 341.724 77.875 341.724 80.9205C341.724 83.9659 342.134 86.6818 342.952 89.0682C343.793 91.4545 345.031 93.3409 346.668 94.7273C348.327 96.0909 350.372 96.7727 352.804 96.7727ZM387.952 107V54.6364H402.031V63.7727H402.577C403.531 60.5227 405.134 58.0682 407.384 56.4091C409.634 54.7273 412.224 53.8864 415.156 53.8864C415.884 53.8864 416.668 53.9318 417.509 54.0227C418.349 54.1136 419.088 54.2386 419.724 54.3977V67.2841C419.043 67.0795 418.099 66.8977 416.895 66.7386C415.69 66.5795 414.588 66.5 413.588 66.5C411.452 66.5 409.543 66.9659 407.861 67.8977C406.202 68.8068 404.884 70.0795 403.906 71.7159C402.952 73.3523 402.474 75.2386 402.474 77.375V107H387.952ZM448.659 108.023C443.273 108.023 438.636 106.932 434.75 104.75C430.886 102.545 427.909 99.4318 425.818 95.4091C423.727 91.3636 422.682 86.5795 422.682 81.0568C422.682 75.6705 423.727 70.9432 425.818 66.875C427.909 62.8068 430.852 59.6364 434.648 57.3636C438.466 55.0909 442.943 53.9545 448.08 53.9545C451.534 53.9545 454.75 54.5114 457.727 55.625C460.727 56.7159 463.341 58.3636 465.568 60.5682C467.818 62.7727 469.568 65.5455 470.818 68.8864C472.068 72.2045 472.693 76.0909 472.693 80.5455V84.5341H428.477V75.5341H459.023C459.023 73.4432 458.568 71.5909 457.659 69.9773C456.75 68.3636 455.489 67.1023 453.875 66.1932C452.284 65.2614 450.432 64.7955 448.318 64.7955C446.114 64.7955 444.159 65.3068 442.455 66.3295C440.773 67.3295 439.455 68.6818 438.5 70.3864C437.545 72.0682 437.057 73.9432 437.034 76.0114V84.5682C437.034 87.1591 437.511 89.3977 438.466 91.2841C439.443 93.1705 440.818 94.625 442.591 95.6477C444.364 96.6705 446.466 97.1818 448.898 97.1818C450.511 97.1818 451.989 96.9545 453.33 96.5C454.67 96.0455 455.818 95.3636 456.773 94.4545C457.727 93.5455 458.455 92.4318 458.955 91.1136L472.386 92C471.705 95.2273 470.307 98.0455 468.193 100.455C466.102 102.841 463.398 104.705 460.08 106.045C456.784 107.364 452.977 108.023 448.659 108.023Z" fill="#323232"/>
</g>
<defs>
<clipPath id="clip0_346_2419">
<rect width="700" height="140" fill="white"/>
</clipPath>
<clipPath id="clip1_346_2419">
<rect width="140" height="140" fill="white" transform="translate(560)"/>
</clipPath>
<clipPath id="clip2_346_2419">
<rect width="140" height="140" fill="white" transform="translate(140 140) rotate(180)"/>
</clipPath>
</defs>
</svg>
